<svg aria-hidden="true" style="width:0;height:0;position:absolute;overflow:hidden" xmlns="http://www.w3.org/2000/svg"><defs><symbol id="icon-telega" viewBox="0 0 35 32"><path d="M26.062 5.047c-7.093 2.54-22.235 9.435-22.367 10.194-.165.825 3.266 2.012 5.872 2.045l2.144.033 5.575-3.893c5.047-3.497 6.796-4.421 6.796-3.563 0 .396-1.979 2.474-5.278 5.509-3.299 3.068-3.695 3.53-3.431 4.223.264.726 7.984 6.169 9.303 6.565 1.88.594 2.243-.132 3.332-6.565a419.29 419.29 0 0 0 1.55-9.798c.825-5.74.495-6.169-3.497-4.75z"/></symbol><symbol id="icon-linkedin" viewBox="0 0 37 32"><path d="M11.111 3.319c-.978.563-1.304 1.215-1.333 2.489 0 1.57.919 2.489 2.489 2.489 2.252 0 3.378-2.578 1.896-4.267-.8-.889-2.193-1.215-3.052-.711zM23.704 10.844c-.563.237-1.333.741-1.689 1.067l-.681.622v-1.867h-4.148v14.815h4.148v-4.148c0-4.474.237-5.422 1.541-6.341.77-.533 2.37-.622 3.259-.148 1.096.593 1.422 2.044 1.422 6.489v4.178l4.296-.178.089-4.415c.119-6.815-.474-8.83-3.022-9.985-1.452-.652-3.793-.711-5.215-.089zM10.133 17.985l.089 7.348h4.148l.089-7.348.059-7.319h-4.444l.059 7.319z"/></symbol><symbol id="icon-insta" viewBox="0 0 31 32"><path d="M8.072 3.661c-2.393.836-3.834 2.162-4.584 4.209-.202.49-.317 3.575-.317 7.726 0 7.64.115 8.245 1.816 10.004 1.96 2.076 2.22 2.104 10.667 2.018l7.553-.087 1.355-.923c.894-.634 1.557-1.441 2.076-2.45.75-1.499.75-1.528.75-8.562 0-6.515-.058-7.207-.605-8.389-.807-1.787-1.557-2.508-3.344-3.171-1.384-.519-2.22-.577-8.245-.548-3.69 0-6.89.087-7.121.173zm14.991 2.451c.519.375 1.24 1.038 1.557 1.47.577.778.605 1.153.605 7.986s-.029 7.207-.605 7.986c-.317.432-1.038 1.096-1.557 1.47-.923.605-1.182.634-7.553.634-7.409 0-7.986-.115-9.341-1.903l-.836-1.067v-7.15c0-6.775.029-7.178.605-7.957.317-.432 1.038-1.096 1.557-1.47.923-.605 1.182-.634 7.784-.634s6.861.029 7.784.634z"/><path d="M20.757 8.216c-.577.721-.029 1.989.894 2.104s1.47-.519 1.355-1.586c-.058-.663-.231-.836-.98-.894-.548-.058-1.038.087-1.268.375zM13.232 9.312c-1.701.634-3.056 1.874-4.007 3.661-.634 1.182-.49 4.267.231 5.708 1.182 2.249 4.094 3.748 6.602 3.402 5.333-.721 7.553-6.4 4.238-10.753-1.441-1.874-4.814-2.854-7.063-2.018zm4.065 2.479c3.978 2.104 2.479 8.216-2.018 8.216-2.422 0-4.324-1.96-4.324-4.411 0-1.73.778-2.941 2.335-3.719s2.71-.807 4.007-.086z"/></symbol><symbol id="icon-facebook" viewBox="0 0 22 32"><path d="M12.319 3.851c-2.294 1.189-3.257 3.2-3.257 6.825v2.067H5.097v4.814h3.965v11.611h4.814V17.586l3.511-.17.368-2.096c.198-1.161.283-2.209.198-2.35-.085-.113-1.019-.227-2.124-.227h-1.954v-1.926c.028-1.104.17-2.096.396-2.379.481-.651 1.671-1.076 3.03-1.076h1.104V5.55c0-1.784 0-1.812-.878-1.982-1.642-.312-4.333-.17-5.211.283z"/></symbol><symbol id="icon-logo" viewBox="0 0 45 32"><path d="M0 16v16h44.761V0H0v16zm25.247-8.54c.452.236.962.609 1.119.864.569.864 1.453 1.099 4.201 1.099 2.002 0 2.65.079 3.18.353a2.836 2.836 0 0 1 1.512 1.845c.098.471.059.55-.294.55-.294 0-.412-.118-.412-.412 0-.216-.255-.668-.569-.982-.569-.569-.589-.569-2.964-.569-3.063 0-3.887-.216-5.045-1.296-1.06-1.021-1.512-1.119-4.162-1.021l-1.963.059-.844.805c-1.296 1.256-1.531 1.315-4.79 1.433-3.239.137-3.436.196-3.848 1.315-.294.805-.883.864-.785.079.118-.805.962-1.728 1.806-1.983.628-.196.785-.334.785-.707 0-.883.628-1.237 2.199-1.237 1.59 0 2.12.294 2.12 1.217 0 .294.098.55.196.55.393 0 1.276-.55 1.767-1.08.864-.962 1.845-1.276 4.005-1.276 1.571 0 2.12.079 2.788.393zm-.589 4.476c1.571.805 2.631 2.513 2.631 4.26 0 3.455-3.671 5.811-6.773 4.339-4.083-1.924-3.652-7.558.687-8.972.785-.255 2.611-.059 3.455.373zM7.853 13.723c.707.707.903 1.433.589 2.199-.393.923-1.08 1.355-2.179 1.355h-.962v1.963H3.927v-2.906c0-1.61.059-2.984.137-3.043.059-.079.825-.137 1.669-.137 1.453 0 1.59.039 2.12.569zm4.319.608v1.178h2.748v-2.356h1.178v6.086H14.92v-2.572l-2.65.118-.059 1.217c-.059 1.217-.059 1.237-.628 1.237h-.589v-6.086h1.178v1.178zm20.908-.589c0 .452-.079.491-.923.55l-.942.059v4.888h-1.374v-4.908h-.883c-.844 0-.883-.02-.883-.589v-.609l5.006.118v.491zm6.792.334c.982 1.08 1.178 2.218.569 3.475s-1.472 1.767-2.886 1.649c-.982-.079-1.178-.177-1.826-.883-1.021-1.08-1.178-2.101-.55-3.357.648-1.335 1.531-1.865 2.886-1.747.942.059 1.158.177 1.806.864zM20.81 22.184c0 .255.137.393.373.393.452 0 .569.294.432 1.06-.196.962-.589.864-.471-.118l.079-.844-.393.471c-.236.255-.412.628-.412.825s-.079.373-.196.373c-.255 0-.255-.079.02-1.433.216-1.08.569-1.531.569-.726zm-1.06.609c.079.157 0 .177-.294.079-.51-.157-.569.236-.079.589.177.137.275.373.196.569-.137.353-1.021.432-1.237.098-.079-.137 0-.177.275-.098.569.196.746-.255.255-.609-.334-.236-.393-.353-.196-.569.275-.334.883-.353 1.08-.059zm4.299.176c.079.255 0 .609-.196.903-.432.668-1.531.609-1.629-.079-.157-1.001 1.531-1.747 1.826-.825zm.884.138.02.55.294-.55c.157-.294.373-.53.471-.53s.196.236.236.53l.079.55.275-.55c.314-.648.668-.707.471-.098-.177.589-.668 1.335-.864 1.335-.098 0-.236-.196-.314-.432l-.137-.452-.157.452c-.294.766-.726.51-.805-.452-.039-.609.02-.883.177-.883.137 0 .255.236.255.53zm-14.685.981.059 1.139h24.147l.059-1.139c.059-.962.118-1.119.432-1.119.353 0 .393.137.393 1.119 0 1.983 1.158 1.826-12.977 1.826H10.032l-.294-.432c-.196-.275-.314-.864-.314-1.472 0-.903.059-1.041.393-1.041.314 0 .373.157.432 1.119z"/><path d="M12.996 8.874c.059.412.177.452 1.315.51 1.276.059 1.669-.118 1.453-.687-.079-.177-.51-.255-1.472-.255-1.296 0-1.355.02-1.296.432zM21.634 12.388c-3.082.589-4.162 4.594-1.826 6.714 1.629 1.472 3.867 1.413 5.418-.137 2.788-2.788.314-7.303-3.593-6.577zm2.651.569c.825.491 1.747 1.787 1.904 2.65.177.942-.177 2.14-.903 2.964-.825.942-1.551 1.276-2.807 1.276-1.256.02-2.042-.373-2.906-1.453-1.413-1.728-.628-4.79 1.433-5.615.864-.334 2.591-.255 3.279.177z"/><path d="m25.011 14.96-.373.452.452-.373c.412-.353.53-.51.373-.51-.039 0-.236.196-.452.432zM21.556 15.391c-.412.569-.432.726-.118 1.374.137.334.432.55.864.628.55.098.726.039 1.119-.412.432-.51.452-.569.157-1.198-.157-.373-.432-.668-.609-.668-.157 0-.471-.039-.687-.098-.255-.059-.51.059-.726.373zM5.301 15.195v.903h.883c.785 0 .883-.059 1.001-.53.196-.746-.137-1.139-1.08-1.198l-.805-.059v.883zM36.947 14.469c-.393.157-.825 1.158-.825 1.924 0 .883.883 1.865 1.669 1.865.314 0 .746-.236 1.099-.569 1.198-1.198.51-3.377-1.041-3.337-.353 0-.766.059-.903.118zM22.734 23.264c-.177.373-.177.55 0 .726.314.314.825-.157.825-.746 0-.628-.53-.609-.825.02z"/></symbol></defs></svg>