<?xml version="1.0" standalone="no"?>
<!DOCTYPE svg PUBLIC "-//W3C//DTD SVG 20010904//EN"
 "http://www.w3.org/TR/2001/REC-SVG-20010904/DTD/svg10.dtd">
<svg version="1.0" xmlns="http://www.w3.org/2000/svg"
 width="520.000000pt" height="520.000000pt" viewBox="0 0 520.000000 520.000000"
 preserveAspectRatio="xMidYMid meet">
<metadata>
Created by potrace 1.14, written by Peter Selinger 2001-2017
</metadata>
<g transform="translate(0.000000,520.000000) scale(0.100000,-0.100000)"
fill="#000000" stroke="none">
<path d="M2047 4169 c-58 -14 -89 -33 -136 -84 -60 -66 -100 -158 -151 -352
l-11 -43 -449 0 c-419 0 -451 -1 -492 -19 -51 -22 -86 -55 -119 -108 l-24 -38
-3 -1150 c-2 -1049 -1 -1154 14 -1194 21 -55 66 -106 118 -134 l41 -22 1765 0
1765 0 41 22 c52 28 111 96 125 143 7 23 9 419 7 1185 -3 1276 2 1173 -69
1244 -68 68 -46 66 -556 69 l-462 3 -11 42 c-51 194 -91 286 -151 353 -86 92
-59 89 -669 91 -294 1 -552 -3 -573 -8z m780 -759 c271 -57 513 -222 670 -458
293 -437 222 -1024 -168 -1387 -360 -335 -908 -379 -1320 -106 -573 379 -653
1179 -167 1661 151 150 333 249 543 293 105 23 328 21 442 -3z m1473 -325 l0
-125 -242 2 -243 3 -3 123 -3 122 246 0 245 0 0 -125z"/>
<path d="M2405 3120 c-301 -79 -527 -323 -580 -625 -19 -111 -19 -172 1 -276
30 -158 99 -294 208 -408 311 -324 830 -321 1138 7 229 243 281 586 134 885
-102 208 -288 360 -511 417 -104 27 -290 27 -390 0z"/>
</g>
</svg>
