<?xml version="1.0" standalone="no"?>
<!DOCTYPE svg PUBLIC "-//W3C//DTD SVG 20010904//EN"
 "http://www.w3.org/TR/2001/REC-SVG-20010904/DTD/svg10.dtd">
<svg version="1.0" xmlns="http://www.w3.org/2000/svg"
 width="228.000000pt" height="163.000000pt" viewBox="0 0 228.000000 163.000000"
 preserveAspectRatio="xMidYMid meet">

<g transform="translate(0.000000,163.000000) scale(0.100000,-0.100000)"
fill="#000000" stroke="none">
<path d="M0 815 l0 -815 1140 0 1140 0 0 815 0 815 -1140 0 -1140 0 0 -815z
m1286 435 c23 -12 49 -31 57 -44 29 -44 74 -56 214 -56 102 0 135 -4 162 -18
39 -19 67 -54 77 -94 5 -24 3 -28 -15 -28 -15 0 -21 6 -21 21 0 11 -13 34 -29
50 -29 29 -30 29 -151 29 -156 0 -198 11 -257 66 -54 52 -77 57 -212 52 l-100
-3 -43 -41 c-66 -64 -78 -67 -244 -73 -165 -7 -175 -10 -196 -67 -15 -41 -45
-44 -40 -4 6 41 49 88 92 101 32 10 40 17 40 36 0 45 32 63 112 63 81 0 108
-15 108 -62 0 -15 5 -28 10 -28 20 0 65 28 90 55 44 49 94 65 204 65 80 0 108
-4 142 -20z m-30 -228 c80 -41 134 -128 134 -217 0 -176 -187 -296 -345 -221
-208 98 -186 385 35 457 40 13 133 3 176 -19z m-856 -91 c36 -36 46 -73 30
-112 -20 -47 -55 -69 -111 -69 l-49 0 0 -50 0 -50 -35 0 -35 0 0 148 c0 82 3
152 7 155 3 4 42 7 85 7 74 0 81 -2 108 -29z m220 -31 l0 -60 70 0 70 0 0 60
0 60 30 0 30 0 0 -155 0 -155 -30 0 -30 0 0 65 0 66 -67 -3 -68 -3 -3 -62 c-3
-62 -3 -63 -32 -63 l-30 0 0 155 0 155 30 0 30 0 0 -60z m1065 30 c0 -23 -4
-25 -47 -28 l-48 -3 0 -125 0 -124 -35 0 -35 0 0 125 0 125 -45 0 c-43 0 -45
1 -45 30 l0 31 128 -3 127 -3 0 -25z m346 -17 c50 -55 60 -113 29 -177 -31
-64 -75 -90 -147 -84 -50 4 -60 9 -93 45 -52 55 -60 107 -28 171 33 68 78 95
147 89 48 -3 59 -9 92 -44z m-971 -413 c0 -13 7 -20 19 -20 23 0 29 -15 22
-54 -10 -49 -30 -44 -24 6 l4 43 -20 -24 c-12 -13 -21 -32 -21 -42 0 -10 -4
-19 -10 -19 -13 0 -13 4 1 73 11 55 29 78 29 37z m-54 -31 c4 -8 0 -9 -15 -4
-26 8 -29 -12 -4 -30 9 -7 14 -19 10 -29 -7 -18 -52 -22 -63 -5 -4 7 0 9 14 5
29 -10 38 13 13 31 -17 12 -20 18 -10 29 14 17 45 18 55 3z m219 -9 c4 -13 0
-31 -10 -46 -22 -34 -78 -31 -83 4 -8 51 78 89 93 42z m45 -7 l1 -28 15 28 c8
15 19 27 24 27 5 0 10 -12 12 -27 l4 -28 14 28 c16 33 34 36 24 5 -9 -30 -34
-68 -44 -68 -5 0 -12 10 -16 22 l-7 23 -8 -23 c-15 -39 -37 -26 -41 23 -2 31
1 45 9 45 7 0 13 -12 13 -27z m-748 -50 l3 -58 615 0 615 0 3 58 c3 49 6 57
22 57 18 0 20 -7 20 -57 0 -101 59 -93 -661 -93 l-628 0 -15 22 c-10 14 -16
44 -16 75 0 46 3 53 20 53 16 0 19 -8 22 -57z"/>
<path d="M662 1178 c3 -21 9 -23 67 -26 65 -3 85 6 74 35 -4 9 -26 13 -75 13
-66 0 -69 -1 -66 -22z"/>
<path d="M1102 999 c-157 -30 -212 -234 -93 -342 83 -75 197 -72 276 7 142
142 16 372 -183 335z m135 -29 c42 -25 89 -91 97 -135 9 -48 -9 -109 -46 -151
-42 -48 -79 -65 -143 -65 -64 -1 -104 19 -148 74 -72 88 -32 244 73 286 44 17
132 13 167 -9z"/>
<path d="M1274 868 l-19 -23 23 19 c21 18 27 26 19 26 -2 0 -12 -10 -23 -22z"/>
<path d="M1098 846 c-21 -29 -22 -37 -6 -70 7 -17 22 -28 44 -32 28 -5 37 -2
57 21 22 26 23 29 8 61 -8 19 -22 34 -31 34 -8 0 -24 2 -35 5 -13 3 -26 -3
-37 -19z"/>
<path d="M270 856 l0 -46 45 0 c40 0 45 3 51 27 10 38 -7 58 -55 61 l-41 3 0
-45z"/>
<path d="M1882 893 c-20 -8 -42 -59 -42 -98 0 -45 45 -95 85 -95 16 0 38 12
56 29 61 61 26 172 -53 170 -18 0 -39 -3 -46 -6z"/>
<path d="M1158 445 c-9 -19 -9 -28 0 -37 16 -16 42 8 42 38 0 32 -27 31 -42
-1z"/>
</g>
</svg>
