<svg aria-hidden="true" style="position: absolute; width: 0; height: 0; overflow: hidden;" version="1.1" xmlns="http://www.w3.org/2000/svg" xmlns:xlink="http://www.w3.org/1999/xlink">
<defs>
<symbol id="icon-telega" viewBox="0 0 35 32">
<path d="M26.062 5.047c-7.093 2.54-22.235 9.435-22.367 10.194-0.165 0.825 3.266 2.012 5.872 2.045l2.144 0.033 5.575-3.893c5.047-3.497 6.796-4.421 6.796-3.563 0 0.396-1.979 2.474-5.278 5.509-3.299 3.068-3.695 3.53-3.431 4.223 0.264 0.726 7.984 6.169 9.303 6.565 1.88 0.594 2.243-0.132 3.332-6.565 0.528-3.068 1.221-7.489 1.55-9.798 0.825-5.74 0.495-6.169-3.497-4.75z"></path>
</symbol>
<symbol id="icon-linkedin" viewBox="0 0 37 32">
<path d="M11.111 3.319c-0.978 0.563-1.304 1.215-1.333 2.489 0 1.57 0.919 2.489 2.489 2.489 2.252 0 3.378-2.578 1.896-4.267-0.8-0.889-2.193-1.215-3.052-0.711z"></path>
<path d="M23.704 10.844c-0.563 0.237-1.333 0.741-1.689 1.067l-0.681 0.622v-1.867h-4.148v14.815h4.148v-4.148c0-4.474 0.237-5.422 1.541-6.341 0.77-0.533 2.37-0.622 3.259-0.148 1.096 0.593 1.422 2.044 1.422 6.489v4.178l4.296-0.178 0.089-4.415c0.119-6.815-0.474-8.83-3.022-9.985-1.452-0.652-3.793-0.711-5.215-0.089z"></path>
<path d="M10.133 17.985l0.089 7.348h4.148l0.089-7.348 0.059-7.319h-4.444l0.059 7.319z"></path>
</symbol>
<symbol id="icon-insta" viewBox="0 0 31 32">
<path d="M8.072 3.661c-2.393 0.836-3.834 2.162-4.584 4.209-0.202 0.49-0.317 3.575-0.317 7.726 0 7.64 0.115 8.245 1.816 10.004 1.96 2.076 2.22 2.104 10.667 2.018l7.553-0.087 1.355-0.923c0.894-0.634 1.557-1.441 2.076-2.45 0.75-1.499 0.75-1.528 0.75-8.562 0-6.515-0.058-7.207-0.605-8.389-0.807-1.787-1.557-2.508-3.344-3.171-1.384-0.519-2.22-0.577-8.245-0.548-3.69 0-6.89 0.087-7.121 0.173zM23.063 6.112c0.519 0.375 1.24 1.038 1.557 1.47 0.577 0.778 0.605 1.153 0.605 7.986s-0.029 7.207-0.605 7.986c-0.317 0.432-1.038 1.096-1.557 1.47-0.923 0.605-1.182 0.634-7.553 0.634-7.409 0-7.986-0.115-9.341-1.903l-0.836-1.067v-7.15c0-6.775 0.029-7.178 0.605-7.957 0.317-0.432 1.038-1.096 1.557-1.47 0.923-0.605 1.182-0.634 7.784-0.634s6.861 0.029 7.784 0.634z"></path>
<path d="M20.757 8.216c-0.577 0.721-0.029 1.989 0.894 2.104s1.47-0.519 1.355-1.586c-0.058-0.663-0.231-0.836-0.98-0.894-0.548-0.058-1.038 0.087-1.268 0.375z"></path>
<path d="M13.232 9.312c-1.701 0.634-3.056 1.874-4.007 3.661-0.634 1.182-0.49 4.267 0.231 5.708 1.182 2.249 4.094 3.748 6.602 3.402 5.333-0.721 7.553-6.4 4.238-10.753-1.441-1.874-4.814-2.854-7.063-2.018zM17.297 11.791c3.978 2.104 2.479 8.216-2.018 8.216-2.422 0-4.324-1.96-4.324-4.411 0-1.73 0.778-2.941 2.335-3.719s2.71-0.807 4.007-0.086z"></path>
</symbol>
<symbol id="icon-facebook" viewBox="0 0 22 32">
<path d="M12.319 3.851c-2.294 1.189-3.257 3.2-3.257 6.825v2.067h-3.965v4.814h3.965v11.611h4.814v-11.582l3.511-0.17 0.368-2.096c0.198-1.161 0.283-2.209 0.198-2.35-0.085-0.113-1.019-0.227-2.124-0.227h-1.954v-1.926c0.028-1.104 0.17-2.096 0.396-2.379 0.481-0.651 1.671-1.076 3.030-1.076h1.104v-1.812c0-1.784 0-1.812-0.878-1.982-1.642-0.312-4.333-0.17-5.211 0.283z"></path>
</symbol>
<symbol id="icon-logo" viewBox="0 0 45 32">
<path d="M0 16v16h44.761v-32h-44.761v16zM25.247 7.46c0.452 0.236 0.962 0.609 1.119 0.864 0.569 0.864 1.453 1.099 4.201 1.099 2.002 0 2.65 0.079 3.18 0.353 0.766 0.373 1.315 1.060 1.512 1.845 0.098 0.471 0.059 0.55-0.294 0.55-0.294 0-0.412-0.118-0.412-0.412 0-0.216-0.255-0.668-0.569-0.982-0.569-0.569-0.589-0.569-2.964-0.569-3.063 0-3.887-0.216-5.045-1.296-1.060-1.021-1.512-1.119-4.162-1.021l-1.963 0.059-0.844 0.805c-1.296 1.256-1.531 1.315-4.79 1.433-3.239 0.137-3.436 0.196-3.848 1.315-0.294 0.805-0.883 0.864-0.785 0.079 0.118-0.805 0.962-1.728 1.806-1.983 0.628-0.196 0.785-0.334 0.785-0.707 0-0.883 0.628-1.237 2.199-1.237 1.59 0 2.12 0.294 2.12 1.217 0 0.294 0.098 0.55 0.196 0.55 0.393 0 1.276-0.55 1.767-1.080 0.864-0.962 1.845-1.276 4.005-1.276 1.571 0 2.12 0.079 2.788 0.393zM24.658 11.936c1.571 0.805 2.631 2.513 2.631 4.26 0 3.455-3.671 5.811-6.773 4.339-4.083-1.924-3.652-7.558 0.687-8.972 0.785-0.255 2.611-0.059 3.455 0.373zM7.853 13.723c0.707 0.707 0.903 1.433 0.589 2.199-0.393 0.923-1.080 1.355-2.179 1.355h-0.962v1.963h-1.374v-2.906c0-1.61 0.059-2.984 0.137-3.043 0.059-0.079 0.825-0.137 1.669-0.137 1.453 0 1.59 0.039 2.12 0.569zM12.172 14.331v1.178h2.748v-2.356h1.178v6.086h-1.178v-2.572l-2.65 0.118-0.059 1.217c-0.059 1.217-0.059 1.237-0.628 1.237h-0.589v-6.086h1.178v1.178zM33.080 13.742c0 0.452-0.079 0.491-0.923 0.55l-0.942 0.059v4.888h-1.374v-4.908h-0.883c-0.844 0-0.883-0.020-0.883-0.589v-0.609l5.006 0.118v0.491zM39.872 14.076c0.982 1.080 1.178 2.218 0.569 3.475s-1.472 1.767-2.886 1.649c-0.982-0.079-1.178-0.177-1.826-0.883-1.021-1.080-1.178-2.101-0.55-3.357 0.648-1.335 1.531-1.865 2.886-1.747 0.942 0.059 1.158 0.177 1.806 0.864zM20.81 22.184c0 0.255 0.137 0.393 0.373 0.393 0.452 0 0.569 0.294 0.432 1.060-0.196 0.962-0.589 0.864-0.471-0.118l0.079-0.844-0.393 0.471c-0.236 0.255-0.412 0.628-0.412 0.825s-0.079 0.373-0.196 0.373c-0.255 0-0.255-0.079 0.020-1.433 0.216-1.080 0.569-1.531 0.569-0.726zM19.75 22.793c0.079 0.157 0 0.177-0.294 0.079-0.51-0.157-0.569 0.236-0.079 0.589 0.177 0.137 0.275 0.373 0.196 0.569-0.137 0.353-1.021 0.432-1.237 0.098-0.079-0.137 0-0.177 0.275-0.098 0.569 0.196 0.746-0.255 0.255-0.609-0.334-0.236-0.393-0.353-0.196-0.569 0.275-0.334 0.883-0.353 1.080-0.059zM24.049 22.969c0.079 0.255 0 0.609-0.196 0.903-0.432 0.668-1.531 0.609-1.629-0.079-0.157-1.001 1.531-1.747 1.826-0.825zM24.933 23.107l0.020 0.55 0.294-0.55c0.157-0.294 0.373-0.53 0.471-0.53s0.196 0.236 0.236 0.53l0.079 0.55 0.275-0.55c0.314-0.648 0.668-0.707 0.471-0.098-0.177 0.589-0.668 1.335-0.864 1.335-0.098 0-0.236-0.196-0.314-0.432l-0.137-0.452-0.157 0.452c-0.294 0.766-0.726 0.51-0.805-0.452-0.039-0.609 0.020-0.883 0.177-0.883 0.137 0 0.255 0.236 0.255 0.53zM10.248 24.088l0.059 1.139h24.147l0.059-1.139c0.059-0.962 0.118-1.119 0.432-1.119 0.353 0 0.393 0.137 0.393 1.119 0 1.983 1.158 1.826-12.977 1.826h-12.329l-0.294-0.432c-0.196-0.275-0.314-0.864-0.314-1.472 0-0.903 0.059-1.041 0.393-1.041 0.314 0 0.373 0.157 0.432 1.119z"></path>
<path d="M12.996 8.874c0.059 0.412 0.177 0.452 1.315 0.51 1.276 0.059 1.669-0.118 1.453-0.687-0.079-0.177-0.51-0.255-1.472-0.255-1.296 0-1.355 0.020-1.296 0.432z"></path>
<path d="M21.634 12.388c-3.082 0.589-4.162 4.594-1.826 6.714 1.629 1.472 3.867 1.413 5.418-0.137 2.788-2.788 0.314-7.303-3.593-6.577zM24.285 12.957c0.825 0.491 1.747 1.787 1.904 2.65 0.177 0.942-0.177 2.14-0.903 2.964-0.825 0.942-1.551 1.276-2.807 1.276-1.256 0.020-2.042-0.373-2.906-1.453-1.413-1.728-0.628-4.79 1.433-5.615 0.864-0.334 2.591-0.255 3.279 0.177z"></path>
<path d="M25.011 14.96l-0.373 0.452 0.452-0.373c0.412-0.353 0.53-0.51 0.373-0.51-0.039 0-0.236 0.196-0.452 0.432z"></path>
<path d="M21.556 15.391c-0.412 0.569-0.432 0.726-0.118 1.374 0.137 0.334 0.432 0.55 0.864 0.628 0.55 0.098 0.726 0.039 1.119-0.412 0.432-0.51 0.452-0.569 0.157-1.198-0.157-0.373-0.432-0.668-0.609-0.668-0.157 0-0.471-0.039-0.687-0.098-0.255-0.059-0.51 0.059-0.726 0.373z"></path>
<path d="M5.301 15.195v0.903h0.883c0.785 0 0.883-0.059 1.001-0.53 0.196-0.746-0.137-1.139-1.080-1.198l-0.805-0.059v0.883z"></path>
<path d="M36.947 14.469c-0.393 0.157-0.825 1.158-0.825 1.924 0 0.883 0.883 1.865 1.669 1.865 0.314 0 0.746-0.236 1.099-0.569 1.198-1.198 0.51-3.377-1.041-3.337-0.353 0-0.766 0.059-0.903 0.118z"></path>
<path d="M22.734 23.264c-0.177 0.373-0.177 0.55 0 0.726 0.314 0.314 0.825-0.157 0.825-0.746 0-0.628-0.53-0.609-0.825 0.020z"></path>
</symbol>
</defs>
</svg>
